<svg width="19" height="17" viewBox="0 0 19 17" fill="none" xmlns="http://www.w3.org/2000/svg">
<path d="M1.96346 1.9632H0V7.85359H1.96346V1.9632Z" fill="#FFD300"/>
<path d="M4.58142 1.9632H3.92693V7.85359H4.58142V1.9632Z" fill="#FFD300"/>
<path d="M10.9404 9.4391C10.3102 10.1656 9.90634 11.0907 9.83402 12.1075H10.4885C10.5582 11.2704 10.8897 10.5079 11.4032 9.9015L10.9404 9.4391Z" fill="#FFD300"/>
<path d="M14.726 8.52427C15.5631 8.59397 16.3256 8.92547 16.9319 9.43892L17.3947 8.97619C16.6682 8.34592 15.7431 7.9421 14.7263 7.86978V8.52427H14.726Z" fill="#FFD300"/>
<path d="M11.8655 9.43892C12.4716 8.92547 13.2344 8.59397 14.0715 8.52427V7.86978C13.0544 7.9421 12.1296 8.34592 11.4031 8.97619L11.8655 9.43892Z" fill="#FFD300"/>
<path d="M17.6712 6.54563C17.6712 6.18468 17.3776 5.89114 17.0167 5.89114H12.4353V7.58561C13.0423 7.33887 13.7043 7.20012 14.3987 7.20012H17.0167C17.3776 7.20012 17.6712 6.90658 17.6712 6.54563Z" fill="#FFD300"/>
<path d="M7.89476 9.16284H10.318C10.7228 8.65921 11.2192 8.23412 11.7808 7.90785V4.00416C11.7808 3.67757 11.5992 3.3837 11.3073 3.23775L11.6001 2.65231C11.8803 2.79237 12.0999 3.01097 12.2445 3.27244H17.0167C17.3776 3.27244 17.6712 2.9789 17.6712 2.61795C17.6712 2.257 17.3776 1.96346 17.0167 1.96346H13.417H11.2618L10.7591 2.46578C10.4502 2.7747 10.0392 2.9452 9.60232 2.9452H8.83559V2.29071H9.60232C9.86085 2.29071 10.1138 2.18599 10.2964 2.00306L10.9908 1.30898H11.1263H13.417C13.9583 1.30898 14.3987 0.868506 14.3987 0.327244C14.3987 0.146605 14.2518 0 14.0715 0H8.16768C7.62151 0 7.09203 0.196019 6.67676 0.551733L5.2359 1.78675V7.9913L6.75792 8.86112C7.10381 9.05844 7.49683 9.16284 7.89476 9.16284Z" fill="#FFD300"/>
<path d="M9.83402 12.7619C9.90634 13.779 10.3102 14.7038 10.9404 15.4302L11.4032 14.9675C10.8897 14.3615 10.5582 13.5987 10.4885 12.7616H9.83402V12.7619Z" fill="#FFD300"/>
<path d="M12.43 3.92639C12.4314 3.95224 12.4353 3.97744 12.4353 4.00362V5.23537H17.0167H18.3257C18.6866 5.23537 18.9802 4.94183 18.9802 4.58088C18.9802 4.21993 18.6866 3.92639 18.3257 3.92639H17.0167H12.43Z" fill="#FFD300"/>
<path d="M11.4031 15.8934C12.1296 16.5236 13.0547 16.9275 14.0715 16.9998V16.3453C13.2344 16.2756 12.4719 15.9441 11.8655 15.4306L11.4031 15.8934Z" fill="#FFD300"/>
<path d="M14.726 16.9998C15.7431 16.9275 16.6679 16.5236 17.3943 15.8934L16.9316 15.4306C16.3256 15.9441 15.5628 16.2756 14.7257 16.3453V16.9998H14.726Z" fill="#FFD300"/>
<path fill-rule="evenodd" clip-rule="evenodd" d="M14.3987 9.16263C16.2032 9.16263 17.6712 10.6306 17.6712 12.4351C17.6712 14.2395 16.2032 15.7075 14.3987 15.7075C12.5943 15.7075 11.1263 14.2395 11.1263 12.4351C11.1263 10.6306 12.5943 9.16263 14.3987 9.16263Z" fill="#FFD300"/>
<path d="M17.3947 9.9015C17.9081 10.5076 18.2396 11.2704 18.3093 12.1075H18.9638C18.8915 11.0904 18.4877 10.1656 17.8574 9.4391L17.3947 9.9015Z" fill="#FFD300"/>
<path d="M17.3947 14.9687L17.8574 15.4315C18.4877 14.705 18.8915 13.7799 18.9638 12.7631H18.3093C18.2396 13.5999 17.9078 14.3623 17.3947 14.9687Z" fill="#FFD300"/>
<path d="M3.27244 1.9632H2.61796V7.85359H3.27244V1.9632Z" fill="#FFD300"/>
</svg>
