<svg width="14" height="14" viewBox="0 0 14 14" fill="none" xmlns="http://www.w3.org/2000/svg">
<path d="M11.9791 7.55705H10.8964C11.0067 7.91326 11.067 8.29767 11.067 8.69833V13.5224C11.067 13.6895 11.0423 13.8498 10.9975 13.9989H12.7874C13.456 13.9989 14 13.3576 14 12.5694V9.93957C14 8.62586 13.0934 7.55705 11.9791 7.55705Z" fill="#FFD300"/>
<path d="M2.933 8.69833C2.933 8.29764 2.99329 7.91326 3.10365 7.55705H2.02096C0.906601 7.55705 0 8.62586 0 9.93959V12.5694C0 13.3576 0.543944 13.9989 1.21257 13.9989H3.00253C2.95766 13.8498 2.933 13.6894 2.933 13.5224V8.69833Z" fill="#FFD300"/>
<path d="M8.23748 6.31596H5.76229C4.64793 6.31596 3.74133 7.38477 3.74133 8.69851V13.5226C3.74133 13.7857 3.92229 13.9991 4.14552 13.9991H9.85424C10.0775 13.9991 10.2584 13.7858 10.2584 13.5226V8.69851C10.2584 7.38477 9.35183 6.31596 8.23748 6.31596Z" fill="#FFD300"/>
<path d="M6.99979 0C5.65963 0 4.56934 1.10845 4.56934 2.47096C4.56934 3.39514 5.07106 4.20228 5.81201 4.62605C6.16346 4.82704 6.56864 4.9419 6.99979 4.9419C7.43094 4.9419 7.83611 4.82704 8.18756 4.62605C8.92854 4.20228 9.43024 3.39511 9.43024 2.47096C9.43024 1.10848 8.33994 0 6.99979 0Z" fill="#FFD300"/>
<path d="M2.73209 2.30412C1.72981 2.30412 0.914429 3.13309 0.914429 4.15206C0.914429 5.17103 1.72981 5.99999 2.73209 5.99999C2.98633 5.99999 3.22843 5.94645 3.44835 5.85021C3.82859 5.68378 4.14211 5.38917 4.33611 5.02014C4.47228 4.76113 4.54974 4.46566 4.54974 4.15206C4.54974 3.13312 3.73436 2.30412 2.73209 2.30412Z" fill="#FFD300"/>
<path d="M11.2679 2.30412C10.2656 2.30412 9.4502 3.13309 9.4502 4.15206C9.4502 4.46569 9.52766 4.76116 9.66383 5.02014C9.85783 5.38919 10.1714 5.68381 10.5516 5.85021C10.7715 5.94645 11.0136 5.99999 11.2679 5.99999C12.2701 5.99999 13.0855 5.17103 13.0855 4.15206C13.0855 3.13309 12.2701 2.30412 11.2679 2.30412Z" fill="#FFD300"/>
</svg>
