<svg width="24" height="22" viewBox="0 0 24 22" fill="none" xmlns="http://www.w3.org/2000/svg">
<path d="M12.7031 1.20312C12.7031 0.814758 12.3884 0.5 12 0.5C11.6116 0.5 11.2969 0.814758 11.2969 1.20312V4.21558C11.2969 4.60394 11.6116 4.9187 12 4.9187C12.3884 4.9187 12.7031 4.60394 12.7031 4.21558V1.20312Z" fill="white"/>
<path d="M8.49036 5.46643C8.6275 5.60358 8.80749 5.67242 8.98749 5.67242C9.1673 5.67242 9.34729 5.60376 9.48462 5.46643C9.75909 5.19177 9.75909 4.74664 9.48462 4.47198L7.97821 2.96576C7.70374 2.6911 7.25861 2.6911 6.98395 2.96576C6.70929 3.24042 6.70929 3.68555 6.98395 3.9602L8.49036 5.46643Z" fill="white"/>
<path d="M15.0125 5.67224C15.1924 5.67224 15.3724 5.60358 15.5096 5.46625L17.016 3.96002C17.2905 3.68555 17.2905 3.24023 17.016 2.96576C16.7413 2.6911 16.2962 2.6911 16.0215 2.96576L14.5153 4.47198C14.2407 4.74664 14.2407 5.19177 14.5153 5.46625C14.6526 5.60358 14.8326 5.67224 15.0125 5.67224Z" fill="white"/>
<path d="M9.96588 7.29279C9.95856 7.29884 9.9516 7.3047 9.94501 7.31019L6.90509 9.91615C6.62347 10.1575 6.26349 10.2906 5.89215 10.2906H3.71484C1.66315 10.2906 0 11.9508 0 14.0054V20.7846C0 21.1727 0.314758 21.4877 0.703125 21.4877H6.72803C7.11658 21.4877 7.43115 21.1726 7.43115 20.7846V14.3297L11.009 11.2629C11.1918 11.1063 11.2969 10.8776 11.2969 10.637V7.93751C11.2969 7.25086 10.4993 6.8603 9.96588 7.29279Z" fill="white"/>
<path d="M20.2852 10.2906H18.1078C17.7365 10.2906 17.3765 10.1575 17.0949 9.91596L14.055 7.31019C14.0484 7.3047 14.0414 7.29884 14.0341 7.29279C13.5007 6.8603 12.7031 7.25086 12.7031 7.93751V10.637C12.7031 10.8776 12.8082 11.1063 12.991 11.2629L16.5688 14.3297V20.7844C16.5688 21.1726 16.8834 21.4875 17.272 21.4875H23.2969C23.6852 21.4875 24 21.1727 24 20.7844V14.0054C24 11.9508 22.3369 10.2906 20.2852 10.2906Z" fill="white"/>
<path d="M6.6781 7.3277C6.6781 5.69421 5.34912 4.36523 3.71564 4.36523C2.08215 4.36523 0.753174 5.69421 0.753174 7.3277C0.753174 8.96137 2.08215 10.2903 3.71564 10.2903C5.34912 10.2903 6.6781 8.96137 6.6781 7.3277Z" fill="white"/>
<path d="M23.2469 7.3277C23.2469 5.69421 21.918 4.36523 20.2845 4.36523C18.651 4.36523 17.322 5.69421 17.322 7.3277C17.322 8.96137 18.651 10.2903 20.2845 10.2903C21.918 10.2903 23.2469 8.96137 23.2469 7.3277Z" fill="white"/>
</svg>
