<svg width="17" height="18" viewBox="0 0 17 18" fill="none" xmlns="http://www.w3.org/2000/svg">
<path d="M0.194314 7.13761C-0.190735 6.52302 0.0109572 5.87118 0.67104 5.61045C1.31279 5.34972 1.9362 5.1076 2.57795 4.86549C2.7063 4.80962 2.7613 4.75375 2.7613 4.60476C2.77964 3.91567 2.81631 3.22659 2.87132 2.53751C2.92632 1.79255 3.43972 1.4387 4.33817 1.64356C4.79656 1.77393 5.43831 1.94154 6.06172 2.12778C6.22674 2.18365 6.33675 2.1464 6.44677 1.99741C6.85015 1.47594 7.27187 0.954475 7.67526 0.433006C8.13365 -0.144335 8.8304 -0.144335 9.28879 0.433006C9.71051 0.954475 10.1322 1.47594 10.554 2.01604C10.6456 2.12778 10.719 2.16503 10.8657 2.12778C11.5074 1.94154 12.1675 1.7553 12.8092 1.58769C13.506 1.40145 14.0561 1.81117 14.0927 2.53751C14.1294 3.22659 14.1661 3.89705 14.2027 4.58614C14.2027 4.73513 14.2578 4.80962 14.3861 4.84687C15.0095 5.07036 15.6146 5.31247 16.238 5.55458C16.9714 5.83394 17.1915 6.48577 16.7697 7.13761C16.4214 7.69633 16.0546 8.25504 15.6879 8.81376C15.5963 8.94413 15.5963 9.01862 15.6879 9.14899C16.073 9.70771 16.4397 10.285 16.8064 10.8624C17.1915 11.477 16.9898 12.1288 16.3113 12.4082C15.6879 12.6503 15.0645 12.8924 14.4411 13.1345C14.3128 13.1904 14.2394 13.2462 14.2394 13.4139C14.2211 14.1029 14.1661 14.792 14.1294 15.4811C14.0927 16.1888 13.5243 16.5986 12.8459 16.4123C12.1858 16.2261 11.5257 16.0585 10.8657 15.8722C10.7373 15.835 10.664 15.8722 10.5906 15.9653C10.1689 16.5054 9.74718 17.0269 9.32546 17.567C8.86707 18.1443 8.18865 18.1443 7.71193 17.567C7.29021 17.0455 6.85015 16.5054 6.44677 15.9653C6.35509 15.8536 6.28175 15.835 6.1534 15.8722C5.51165 16.0585 4.8699 16.2074 4.24649 16.4123C3.45806 16.673 2.87132 16.0771 2.88965 15.4066C2.88965 14.7548 2.81631 14.0843 2.79798 13.4325C2.79798 13.2835 2.74297 13.2276 2.61462 13.1718C1.97287 12.9296 1.33112 12.6875 0.689376 12.4268C0.0659641 12.1847 -0.154064 11.5142 0.194314 10.9555C0.561026 10.3595 0.927739 9.7822 1.31279 9.18624C1.40447 9.05587 1.40447 8.96275 1.31279 8.85101C0.927739 8.29229 0.561026 7.71495 0.194314 7.13761Z" fill="#90ABBF"/>
<path d="M6.72656 10.0938C6.72656 9.88021 6.66667 9.71094 6.54688 9.58594C6.42969 9.45833 6.22917 9.34115 5.94531 9.23438C5.66146 9.1276 5.41667 9.02214 5.21094 8.91797C5.00521 8.8112 4.82812 8.6901 4.67969 8.55469C4.53385 8.41667 4.41927 8.25521 4.33594 8.07031C4.25521 7.88542 4.21484 7.66536 4.21484 7.41016C4.21484 6.97005 4.35547 6.60938 4.63672 6.32812C4.91797 6.04688 5.29167 5.88281 5.75781 5.83594V5H6.38281V5.84766C6.84375 5.91276 7.20443 6.10547 7.46484 6.42578C7.72526 6.74349 7.85547 7.15625 7.85547 7.66406H6.72656C6.72656 7.35156 6.66146 7.11849 6.53125 6.96484C6.40365 6.80859 6.23177 6.73047 6.01562 6.73047C5.80208 6.73047 5.63672 6.79167 5.51953 6.91406C5.40234 7.03385 5.34375 7.20052 5.34375 7.41406C5.34375 7.61198 5.40104 7.77083 5.51562 7.89062C5.63021 8.01042 5.84245 8.13281 6.15234 8.25781C6.46484 8.38281 6.72135 8.5013 6.92188 8.61328C7.1224 8.72266 7.29167 8.84766 7.42969 8.98828C7.56771 9.1263 7.67318 9.28516 7.74609 9.46484C7.81901 9.64193 7.85547 9.84896 7.85547 10.0859C7.85547 10.5286 7.71745 10.888 7.44141 11.1641C7.16536 11.4401 6.78516 11.6029 6.30078 11.6523V12.4297H5.67969V11.6562C5.14583 11.599 4.73177 11.4102 4.4375 11.0898C4.14583 10.7669 4 10.3385 4 9.80469H5.12891C5.12891 10.1146 5.20182 10.3529 5.34766 10.5195C5.49609 10.6836 5.70833 10.7656 5.98438 10.7656C6.21354 10.7656 6.39453 10.7057 6.52734 10.5859C6.66016 10.4635 6.72656 10.2995 6.72656 10.0938Z" fill="white"/>
<path d="M11.3203 10.0938C11.3203 9.88021 11.2604 9.71094 11.1406 9.58594C11.0234 9.45833 10.8229 9.34115 10.5391 9.23438C10.2552 9.1276 10.0104 9.02214 9.80469 8.91797C9.59896 8.8112 9.42188 8.6901 9.27344 8.55469C9.1276 8.41667 9.01302 8.25521 8.92969 8.07031C8.84896 7.88542 8.80859 7.66536 8.80859 7.41016C8.80859 6.97005 8.94922 6.60938 9.23047 6.32812C9.51172 6.04688 9.88542 5.88281 10.3516 5.83594V5H10.9766V5.84766C11.4375 5.91276 11.7982 6.10547 12.0586 6.42578C12.319 6.74349 12.4492 7.15625 12.4492 7.66406H11.3203C11.3203 7.35156 11.2552 7.11849 11.125 6.96484C10.9974 6.80859 10.8255 6.73047 10.6094 6.73047C10.3958 6.73047 10.2305 6.79167 10.1133 6.91406C9.99609 7.03385 9.9375 7.20052 9.9375 7.41406C9.9375 7.61198 9.99479 7.77083 10.1094 7.89062C10.224 8.01042 10.4362 8.13281 10.7461 8.25781C11.0586 8.38281 11.3151 8.5013 11.5156 8.61328C11.7161 8.72266 11.8854 8.84766 12.0234 8.98828C12.1615 9.1263 12.2669 9.28516 12.3398 9.46484C12.4128 9.64193 12.4492 9.84896 12.4492 10.0859C12.4492 10.5286 12.3112 10.888 12.0352 11.1641C11.7591 11.4401 11.3789 11.6029 10.8945 11.6523V12.4297H10.2734V11.6562C9.73958 11.599 9.32552 11.4102 9.03125 11.0898C8.73958 10.7669 8.59375 10.3385 8.59375 9.80469H9.72266C9.72266 10.1146 9.79557 10.3529 9.94141 10.5195C10.0898 10.6836 10.3021 10.7656 10.5781 10.7656C10.8073 10.7656 10.9883 10.7057 11.1211 10.5859C11.2539 10.4635 11.3203 10.2995 11.3203 10.0938Z" fill="white"/>
</svg>
