<svg width="24" height="24" viewBox="0 0 24 24" fill="none" xmlns="http://www.w3.org/2000/svg">
<path d="M16.6071 14.2416C19.488 10.1734 18.5245 4.54025 14.4564 1.65999C10.3882 -1.22026 4.75503 -0.257423 1.87478 3.81141C-1.00548 7.87955 -0.04264 13.512 4.02619 16.3923C6.92984 18.448 10.7688 18.6063 13.8314 16.7977L20.486 23.4123C21.2045 24.1686 22.3999 24.1989 23.1563 23.4804C23.9127 22.7626 23.9429 21.5671 23.2251 20.8107C23.2024 20.7867 23.1804 20.7646 23.1563 20.7419L16.6071 14.2416ZM9.23542 14.8582C6.02069 14.8589 3.41435 12.2546 3.41229 9.03991C3.4116 5.82518 6.01587 3.21884 9.23129 3.21746C12.4419 3.21609 15.0469 5.81623 15.0531 9.02683C15.0586 12.2423 12.4557 14.8527 9.23955 14.8582C9.23817 14.8582 9.23749 14.8582 9.23542 14.8582Z" fill="#FFD300"/>
</svg>
