<svg width="24" height="24" viewBox="0 0 24 24" fill="none" xmlns="http://www.w3.org/2000/svg">
<path fill-rule="evenodd" clip-rule="evenodd" d="M23.6775 20.3592C23.6203 18.5822 22.5389 17.0692 21.0164 16.3922C21.7307 15.8442 22.1994 14.9832 22.1994 14.0072C22.1994 12.3532 20.8723 11.0072 19.2393 11.0072C17.6073 11.0072 16.2792 12.3532 16.2792 14.0072C16.2792 14.9832 16.7479 15.8422 17.4613 16.3902C16.3197 16.8992 15.4326 17.8812 15.033 19.0882C15.7099 19.5932 16.2684 20.2452 16.6552 21.0002C16.6552 21.0002 23.1999 21.0002 23.2059 21.0002C23.4782 21.0002 23.6992 20.7842 23.6992 20.5072C23.6992 20.4562 23.6923 20.4062 23.6775 20.3592Z" fill="white"/>
<path fill-rule="evenodd" clip-rule="evenodd" d="M8.64645 19.0702C8.24486 17.8702 7.35387 16.8982 6.2172 16.3912C6.93157 15.8432 7.40025 14.9832 7.40025 14.0072C7.40025 12.3522 6.07314 11.0072 4.44015 11.0072C2.80815 11.0072 1.48005 12.3522 1.48005 14.0072C1.48005 14.9822 1.94873 15.8412 2.66212 16.3892C1.0982 17.0862 0 18.6672 0 20.5072C0 20.7832 0.221021 21.0072 0.49335 20.9992H7.01346C7.40222 20.2392 7.96365 19.5762 8.64645 19.0702Z" fill="white"/>
<path fill-rule="evenodd" clip-rule="evenodd" d="M16.2778 23.3586C16.2205 21.5816 15.1391 20.0686 13.6166 19.3916C14.331 18.8436 14.7997 17.9826 14.7997 17.0066C14.7997 15.3526 13.4726 14.0066 11.8396 14.0066C10.2076 14.0066 8.87949 15.3526 8.87949 17.0066C8.87949 17.9826 9.34817 18.8416 10.0616 19.3896C8.49764 20.0866 7.39944 21.6676 7.39944 23.5066C7.39944 23.7836 7.62046 23.9996 7.89279 23.9996C7.89279 23.9996 15.8002 23.9996 15.8061 23.9996C16.0784 23.9996 16.2995 23.7836 16.2995 23.5066C16.2995 23.4556 16.2926 23.4056 16.2778 23.3586Z" fill="white"/>
<path fill-rule="evenodd" clip-rule="evenodd" d="M15.2626 3.00042H8.38629C8.11396 3.00042 7.89294 2.77043 7.89294 2.49344C7.89294 2.21745 8.11396 1.99345 8.38629 1.99345H15.2626C15.5349 1.99345 15.7559 2.21745 15.7559 2.49344C15.7559 2.77043 15.5349 3.00042 15.2626 3.00042ZM15.2626 5.00007H8.38629C8.11396 5.00007 7.89294 4.77007 7.89294 4.49307C7.89294 4.21707 8.11396 3.99307 8.38629 3.99307H15.2626C15.5349 3.99307 15.7559 4.21707 15.7559 4.49307C15.7559 4.77007 15.5349 5.00007 15.2626 5.00007ZM15.2626 6.99962H8.38629C8.11396 6.99962 7.89294 6.76963 7.89294 6.49265C7.89294 6.21667 8.11396 5.99269 8.38629 5.99269H15.2626C15.5349 5.99269 15.7559 6.21667 15.7559 6.49265C15.7559 6.76963 15.5349 6.99962 15.2626 6.99962ZM17.2665 0H6.41285C5.59685 0 4.9328 0.666004 4.9328 1.49301V8.49306C4.9328 9.32006 5.59685 9.99307 6.41285 9.99307H7.1953L10.0113 12.8471C10.1061 12.9421 10.2314 12.9931 10.3596 12.9931C10.4238 12.9931 10.4879 12.9801 10.5491 12.9551C10.7336 12.8781 10.853 12.6951 10.853 12.4931V9.99307H17.2665C18.0825 9.99307 18.7466 9.32006 18.7466 8.49306V1.49301C18.7466 0.666004 18.0825 0 17.2665 0Z" fill="white"/>
</svg>
