<svg width="42" height="40" viewBox="0 0 42 40" fill="none" xmlns="http://www.w3.org/2000/svg">
<path fill-rule="evenodd" clip-rule="evenodd" d="M37.0675 7.26887L41.5233 23.2331C41.912 24.6258 41.4973 26.1117 40.4353 27.1313L28.2617 38.8179C27.1997 39.8374 25.6518 40.2356 24.2011 39.8624L7.57174 35.5848C6.12102 35.2116 4.98789 34.1238 4.59917 32.7311L0.143338 16.7669C-0.245379 15.3742 0.169377 13.8883 1.23137 12.8687L13.4049 1.18212C14.4669 0.162602 16.0148 -0.235564 17.4655 0.137605L34.0949 4.4152C35.5456 4.78837 36.6788 5.87618 37.0675 7.26887Z" fill="#FDD92A"/>
<path d="M12.6584 8.95416H19.9292C23.2423 8.95416 25.6445 9.39542 27.136 10.2779C28.6381 11.1506 29.3891 12.5437 29.3891 14.4575C29.3891 15.7565 29.0589 16.8225 28.3984 17.6554C27.7485 18.4884 26.8803 18.9891 25.7937 19.1577V19.3064C27.2745 19.6138 28.3398 20.189 28.9896 21.0318C29.6501 21.8747 29.9804 22.9952 29.9804 24.3933C29.9804 26.3765 29.208 27.9234 27.6633 29.034C26.1293 30.1446 24.0413 30.6999 21.3993 30.6999H12.6584V8.95416ZM17.6121 17.5662H20.4884C21.8307 17.5662 22.8002 17.3728 23.3967 16.9861C24.004 16.5994 24.3076 15.9598 24.3076 15.0674C24.3076 14.2344 23.9773 13.6395 23.3168 13.2825C22.667 12.9156 21.6337 12.7321 20.2168 12.7321H17.6121V17.5662ZM17.6121 21.2252V26.8922H20.84C22.2036 26.8922 23.2103 26.6492 23.8602 26.1633C24.51 25.6774 24.8349 24.9338 24.8349 23.9322C24.8349 22.1275 23.45 21.2252 20.6802 21.2252H17.6121Z" fill="black"/>
</svg>
