<svg width="123" height="63" viewBox="0 0 123 63" fill="none" xmlns="http://www.w3.org/2000/svg">
<path fill-rule="evenodd" clip-rule="evenodd" d="M55.6377 11.3651L62.3259 36.3255C62.9093 38.503 62.2868 40.8264 60.6927 42.4204L42.4204 60.6927C40.8264 62.2868 38.503 62.9093 36.3255 62.3259L11.3651 55.6377C9.18756 55.0543 7.48674 53.3535 6.90328 51.176L0.215149 26.2155C-0.368311 24.038 0.254233 21.7146 1.84827 20.1206L20.1206 1.84827C21.7146 0.254233 24.038 -0.368311 26.2155 0.215149L51.176 6.90328C53.3535 7.48674 55.0543 9.18756 55.6377 11.3651Z" fill="#FDD92A"/>
<path d="M23.2271 40.9227C24.457 41.152 25.4681 41.767 26.2603 42.7676C27.0525 43.7683 27.4486 44.9149 27.4486 46.2074C27.4486 47.3748 27.1567 48.4068 26.573 49.3032C26.0101 50.1788 25.1867 50.8667 24.1026 51.367C23.0186 51.8674 21.7365 52.1175 20.2564 52.1175H10.8439V30.2907H19.8498C21.33 30.2907 22.6016 30.5305 23.6648 31.0099C24.7489 31.4894 25.5619 32.1565 26.1039 33.0112C26.6668 33.866 26.9482 34.8354 26.9482 35.9194C26.9482 37.1911 26.6043 38.2543 25.9163 39.109C25.2492 39.9637 24.3528 40.5683 23.2271 40.9227ZM15.2218 39.2966H19.2244C20.2668 39.2966 21.0694 39.0673 21.6323 38.6087C22.1951 38.1292 22.4766 37.4517 22.4766 36.5761C22.4766 35.7005 22.1951 35.023 21.6323 34.5435C21.0694 34.064 20.2668 33.8243 19.2244 33.8243H15.2218V39.2966ZM19.6309 48.5527C20.6941 48.5527 21.5176 48.3025 22.1013 47.8022C22.7059 47.3019 23.0082 46.5931 23.0082 45.6758C23.0082 44.7377 22.6955 44.008 22.07 43.4869C21.4446 42.9448 20.6003 42.6738 19.5371 42.6738H15.2218V48.5527H19.6309Z" fill="#0B1511"/>
<path d="M47.042 43.0803C47.042 43.7058 47.0003 44.2686 46.9169 44.769H34.2524C34.3566 46.0198 34.7944 46.9996 35.5657 47.7084C36.3371 48.4172 37.2856 48.7716 38.4113 48.7716C40.0374 48.7716 41.1944 48.0732 41.8824 46.6765H46.6042C46.1039 48.3442 45.1449 49.7201 43.7273 50.8042C42.3097 51.8674 40.569 52.399 38.5051 52.399C36.8374 52.399 35.3364 52.0341 34.0022 51.3045C32.6888 50.554 31.6569 49.5012 30.9064 48.1462C30.1768 46.7911 29.8119 45.2276 29.8119 43.4556C29.8119 41.6628 30.1768 40.0888 30.9064 38.7337C31.6361 37.3787 32.6576 36.3363 33.9709 35.6067C35.2843 34.8771 36.7957 34.5122 38.5051 34.5122C40.1521 34.5122 41.6218 34.8666 42.9143 35.5754C44.2276 36.2842 45.2387 37.2953 45.9475 38.6087C46.6772 39.9012 47.042 41.3917 47.042 43.0803ZM42.5078 41.8295C42.4869 40.7038 42.0804 39.8074 41.2882 39.1403C40.496 38.4523 39.5266 38.1083 38.3801 38.1083C37.296 38.1083 36.3788 38.4419 35.6283 39.109C34.8986 39.7553 34.4504 40.6621 34.2836 41.8295H42.5078Z" fill="#0B1511"/>
<path d="M55.3345 38.3898V46.7703C55.3345 47.354 55.47 47.7813 55.7411 48.0524C56.0329 48.3025 56.5124 48.4276 57.1795 48.4276H59.2121V52.1175H56.4603C52.7704 52.1175 50.9254 50.3247 50.9254 46.739V38.3898H48.8615V34.7937H50.9254V30.5096H55.3345V34.7937H59.2121V38.3898H55.3345Z" fill="#0B1511"/>
<path d="M67.458 38.3898V46.7703C67.458 47.354 67.5935 47.7813 67.8645 48.0524C68.1563 48.3025 68.6358 48.4276 69.3029 48.4276H71.3355V52.1175H68.5837C64.8938 52.1175 63.0488 50.3247 63.0488 46.739V38.3898H60.985V34.7937H63.0488V30.5096H67.458V34.7937H71.3355V38.3898H67.458Z" fill="#0B1511"/>
<path d="M90.5886 43.0803C90.5886 43.7058 90.5469 44.2686 90.4635 44.769H77.799C77.9032 46.0198 78.341 46.9996 79.1123 47.7084C79.8837 48.4172 80.8322 48.7716 81.958 48.7716C83.584 48.7716 84.741 48.0732 85.429 46.6765H90.1508C89.6505 48.3442 88.6915 49.7201 87.2739 50.8042C85.8564 51.8674 84.1156 52.399 82.0518 52.399C80.384 52.399 78.883 52.0341 77.5488 51.3045C76.2355 50.554 75.2035 49.5012 74.453 48.1462C73.7234 46.7911 73.3586 45.2276 73.3586 43.4556C73.3586 41.6628 73.7234 40.0888 74.453 38.7337C75.1827 37.3787 76.2042 36.3363 77.5175 35.6067C78.8309 34.8771 80.3423 34.5122 82.0518 34.5122C83.6987 34.5122 85.1684 34.8666 86.4609 35.5754C87.7743 36.2842 88.7854 37.2953 89.4942 38.6087C90.2238 39.9012 90.5886 41.3917 90.5886 43.0803ZM86.0544 41.8295C86.0336 40.7038 85.627 39.8074 84.8349 39.1403C84.0427 38.4523 83.0733 38.1083 81.9267 38.1083C80.8427 38.1083 79.9254 38.4419 79.1749 39.109C78.4452 39.7553 77.997 40.6621 77.8303 41.8295H86.0544Z" fill="#0B1511"/>
<path d="M98.162 37.4829C98.7248 36.5657 99.4545 35.8464 100.351 35.3253C101.268 34.8041 102.311 34.5435 103.478 34.5435V39.1403H102.321C100.945 39.1403 99.9027 39.4634 99.1939 40.1097C98.5059 40.7559 98.162 41.8816 98.162 43.4869V52.1175H93.7841V34.7937H98.162V37.4829Z" fill="#0B1511"/>
<path d="M123 34.7937L112.274 60.3104H107.615L111.367 51.6797L104.425 34.7937H109.335L113.806 46.8954L118.341 34.7937H123Z" fill="#0B1511"/>
</svg>
